<?xml version="1.0" standalone="no"?>
<!DOCTYPE svg PUBLIC "-//W3C//DTD SVG 20010904//EN"
 "http://www.w3.org/TR/2001/REC-SVG-20010904/DTD/svg10.dtd">
<svg version="1.0" xmlns="http://www.w3.org/2000/svg"
 width="512.000000pt" height="512.000000pt" viewBox="0 0 512.000000 512.000000"
 preserveAspectRatio="xMidYMid meet">

<g transform="translate(0.000000,512.000000) scale(0.100000,-0.100000)"
fill="#55ffbb" stroke="none">
<path d="M2050 4669 c-322 -247 -589 -458 -594 -468 -4 -11 -4 -26 0 -34 9
-15 1141 -889 1176 -908 26 -14 57 -2 64 25 3 14 -34 122 -110 315 -64 161
-116 295 -116 298 0 3 89 3 198 1 216 -6 299 -20 455 -79 642 -245 977 -955
758 -1608 -66 -196 -197 -402 -333 -521 -27 -23 -48 -46 -48 -51 0 -12 350
-429 360 -429 4 0 61 55 126 123 139 143 230 268 313 427 146 282 211 547 211
861 -1 292 -55 535 -179 794 -183 383 -481 682 -865 869 -256 125 -535 186
-847 186 -82 0 -149 2 -149 5 0 2 52 135 115 295 63 161 115 298 115 305 0 19
-28 45 -48 45 -9 -1 -280 -203 -602 -451z"/>
<path d="M1109 3763 c-320 -330 -499 -786 -499 -1266 1 -508 196 -968 562
-1323 357 -346 807 -524 1329 -524 82 0 149 -2 149 -5 0 -2 -52 -136 -116
-297 -120 -305 -126 -332 -79 -344 21 -5 111 61 612 445 323 249 592 460 597
470 4 11 4 26 0 34 -9 15 -1141 889 -1176 908 -26 14 -57 2 -64 -25 -3 -14 34
-122 110 -315 64 -161 116 -295 116 -298 0 -3 -89 -3 -197 -1 -156 4 -217 10
-286 27 -376 91 -682 331 -856 670 -239 469 -166 1041 184 1431 36 40 65 77
65 82 0 11 -369 398 -379 398 -4 0 -36 -30 -72 -67z"/>
</g>
</svg>
